<svg xmlns="http://www.w3.org/2000/svg" viewBox="0 0 480 920" width="480" height="920">
  <!-- 실제 해안선 좌표(johan/world.geo.json, MIT License) 기반으로 자동 생성된 지도.
       간략화된 좌표를 사용했으므로 정밀 GIS 용도로는 부적합합니다. -->
  <defs>
    <linearGradient id="sea" x1="0" y1="0" x2="0" y2="1">
      <stop offset="0%" stop-color="#eaf4fb"/>
      <stop offset="100%" stop-color="#dceaf5"/>
    </linearGradient>
    <linearGradient id="land" x1="0" y1="0" x2="1" y2="1">
      <stop offset="0%" stop-color="#e8efe0"/>
      <stop offset="100%" stop-color="#d3e0c6"/>
    </linearGradient>
  </defs>

  <rect x="0" y="0" width="480" height="920" fill="url(#sea)"/>

  <path d="M 312.1,24.0 C 330.6,55.5 399.3,164.0 423.1,212.8 C 447.0,261.6 449.5,268.5 455.0,316.5 C 460.5,364.5 463.9,455.5 456.0,500.9 C 448.1,546.3 435.0,569.1 407.5,588.8 C 380.0,608.6 327.6,603.4 291.0,619.6 C 254.5,635.8 224.7,672.6 188.2,686.0 C 151.8,699.3 94.0,711.9 72.3,699.7 C 50.6,687.4 56.4,647.0 57.9,612.5 C 59.5,578.0 87.3,540.3 81.8,492.5 C 76.3,444.7 18.5,358.2 25.0,325.9 C 31.4,293.7 119.3,326.3 120.5,299.0 C 121.7,271.7 45.7,187.3 32.3,162.0 C 19.0,136.8 29.5,149.0 40.4,147.5 C 51.3,146.0 79.9,164.3 97.8,153.2 C 115.7,142.1 124.4,94.3 147.9,81.0 C 171.4,67.7 214.5,76.3 238.8,73.2 C 263.1,70.2 281.4,70.9 293.6,62.7 C 305.8,54.5 309.0,30.5 312.1,24.0 C 315.2,17.5 293.6,-7.5 312.1,24.0 Z" fill="url(#land)" stroke="#8fa377" stroke-width="2.2" stroke-linejoin="round"/>
  <path d="M 132.1,861.3 C 132.1,858.2 131.4,855.1 130.2,852.2 C 129.0,849.2 127.1,846.3 124.8,843.7 C 122.5,841.1 119.5,838.5 116.2,836.4 C 112.9,834.2 109.1,832.3 105.0,830.8 C 101.0,829.3 96.5,828.1 92.0,827.3 C 87.5,826.5 82.7,826.1 78.0,826.1 C 73.4,826.1 68.5,826.5 64.0,827.3 C 59.5,828.1 55.1,829.3 51.0,830.8 C 47.0,832.3 43.1,834.2 39.8,836.4 C 36.5,838.5 33.6,841.1 31.2,843.7 C 28.9,846.3 27.0,849.2 25.8,852.2 C 24.6,855.1 24.0,858.2 24.0,861.3 C 24.0,864.3 24.6,867.5 25.8,870.4 C 27.0,873.3 28.9,876.3 31.2,878.9 C 33.6,881.5 36.5,884.0 39.8,886.2 C 43.1,888.3 47.0,890.3 51.0,891.8 C 55.1,893.3 59.5,894.5 64.0,895.3 C 68.5,896.1 73.4,896.5 78.0,896.5 C 82.7,896.5 87.5,896.1 92.0,895.3 C 96.5,894.5 101.0,893.3 105.0,891.8 C 109.1,890.3 112.9,888.3 116.2,886.2 C 119.5,884.0 122.5,881.5 124.8,878.9 C 127.1,876.3 129.0,873.3 130.2,870.4 C 131.4,867.5 132.1,864.3 132.1,861.3 Z" fill="url(#land)" stroke="#8fa377" stroke-width="2.2" stroke-linejoin="round"/>

  <text x="78.0" y="915.7" font-size="13" fill="#6b7a5c" text-anchor="middle" font-family="sans-serif">제주</text>
</svg>
